
nColumns=19
nRows=57
DataType=double
version=3
OpenSimVersion=4.4-2022-10-11-798caa840
endheader
time	ground_force_calcn_r_vx	ground_force_calcn_r_vy	ground_force_calcn_r_vz	ground_force_calcn_r_px	ground_force_calcn_r_py	ground_force_calcn_r_pz	ground_force_calcn_r_mx	ground_force_calcn_r_my	ground_force_calcn_r_mz	ground_force_calcn_l_vx	ground_force_calcn_l_vy	ground_force_calcn_l_vz	ground_force_calcn_l_px	ground_force_calcn_l_py	ground_force_calcn_l_pz	ground_force_calcn_l_mx	ground_force_calcn_l_my	ground_force_calcn_l_mz
0	-81.55419999999999	403.115	-4.76992	0.0686824	0	-0.168151	-0.113681	0.561914	-0.00664893	0	0	0	0	0	0	0	0	0
0.01	-91.4241	437.361	-7.19141	0.0728874	0	-0.167571	-0.123541	0.5910069999999999	-0.009717760000000001	0	0	0	0	0	0	0	0	0
0.02	-101.095	472.65	-10.0361	0.0776695	0	-0.166849	-0.133864	0.625852	-0.0132892	0	0	0	0	0	0	0	0	0
0.03	-109.994	507.297	-13.2733	0.0822232	0	-0.166086	-0.144061	0.664415	-0.0173843	0	0	0	0	0	0	0	0	0
0.04	-117.573	539.659	-16.8347	0.0865119	0	-0.165286	-0.153532	0.704711	-0.0219835	0	0	0	0	0	0	0	0	0
0.05	-123.416	568.3920000000001	-20.6119	0.0905334	0	-0.164454	-0.161932	0.7457819999999999	-0.0270447	0	0	0	0	0	0	0	0	0
0.06	-127.287	592.585	-24.4604	0.0943027	0	-0.1636	-0.169255	0.787969	-0.0325253	0	0	0	0	0	0	0	0	0
0.07000000000000001	-129.131	611.758	-28.2074	0.0978513	0	-0.162734	-0.175801	0.832856	-0.038402	0	0	0	0	0	0	0	0	0
0.08	-129.026	625.753	-31.6652	0.101207	0	-0.161869	-0.181974	0.882543	-0.0446597	0	0	0	0	0	0	0	0	0
0.09	-127.131	634.626	-34.6555	0.104397	0	-0.16102	-0.187921	0.938086	-0.0512267	0	0	0	0	0	0	0	0	0
0.1	-123.648	638.583	-37.036	0.107447	0	-0.160198	-0.193267	0.998131	-0.0578888	0	0	0	0	0	0	0	0	0
0.11	-118.803	637.953	-38.7217	0.110377	0	-0.159406	-0.197111	1.05845	-0.0642447	0	0	0	0	0	0	0	0	0
0.12	-112.836	633.164	-39.6892	0.113207	0	-0.158643	-0.198299	1.11273	-0.06975000000000001	0	0	0	0	0	0	0	0	0
0.13	-106	624.73	-39.9708	0.115961	0	-0.157903	-0.195758	1.15374	-0.0738172	0	0	0	0	0	0	0	0	0
0.14	-98.5497	613.236	-39.6425	0.118663	0	-0.157176	-0.188761	1.17458	-0.0759306	0	0	0	0	0	0	0	0	0
0.15	-90.73860000000001	599.318	-38.8081	0.121346	0	-0.156448	-0.177101	1.16973	-0.0757444	0	0	0	0	0	0	0	0	0
0.16	-82.803	583.645	-37.5864	0.124046	0	-0.155706	-0.161103	1.13555	-0.0731285	0	0	0	0	0	0	0	0	0
0.17	-74.95529999999999	566.893	-36.0991	0.126802	0	-0.154935	-0.141567	1.07069	-0.06818	0	0	0	0	0	0	0	0	0
0.18	-67.3768	549.724	-34.4612	0.129656	0	-0.154123	-0.119628	0.976042	-0.0611864	0	0	0	0	0	0	0	0	0
0.19	-60.2117	532.753	-32.7752	0.132647	0	-0.153263	-0.0965574	0.85434	-0.0525593	0	0	0	0	0	0	0	0	0
0.2	-53.5638	516.535	-31.1272	0.135805	0	-0.15235	-0.073569	0.709453	-0.0427528	0	0	0	0	0	0	0	0	0
0.21	-47.4982	501.54	-29.5858	0.139149	0	-0.151384	-0.0516849	0.545748	-0.0321936	0	0	0	0	0	0	0	0	0
0.22	-42.0434	488.138	-28.2003	0.142685	0	-0.15037	-0.0316749	0.367756	-0.0212457	0	0	0	0	0	0	0	0	0
0.23	-37.1966	476.603	-27.0006	0.1464	0	-0.14932	-0.0140487	0.180007	-0.0101978	0	0	0	0	0	0	0	0	0
0.24	-32.9306	467.115	-25.9961	0.150268	0	-0.14825	0.000939838	-0.0133315	0.000741928	0	0	0	0	0	0	0	0	0
0.25	-29.1987	459.774	-25.1791	0.154252	0	-0.147182	0.0132609	-0.208812	0.0114354	0	0	0	0	0	0	0	0	0
0.26	-25.9392	454.606	-24.5309	0.158298	0	-0.146139	0.0230453	-0.403888	0.0217941	0	0	0	0	0	0	0	0	0
0.27	-23.0786	451.568	-24.0305	0.162351	0	-0.145141	0.0304956	-0.596693	0.0317533	0	0	0	0	0	0	0	0	0
0.28	-20.5361	450.548	-23.6617	0.166353	0	-0.144209	0.0358076	-0.785593	0.0412574	0	0	0	0	0	0	0	0	0
0.29	-18.2277	451.375	-23.4179	0.170252	0	-0.143354	0.0391244	-0.968842	0.0502648	0	0	0	0	0	0	0	0	0
0.3	-16.0698	453.832	-23.3022	0.174004	0	-0.142583	0.0405209	-1.14436	0.0587579	0	0	0	0	0	0	0	0	0
0.31	-13.9814	457.674	-23.3249	0.177578	0	-0.141895	0.0400022	-1.30945	0.0667349	0	0	0	0	0	0	0	0	0
0.32	-11.8883	462.641	-23.5	0.180956	0	-0.141287	0.0375382	-1.46082	0.07420300000000001	0	0	0	0	0	0	0	0	0
0.33	-9.727220000000001	468.473	-23.8403	0.184128	0	-0.140754	0.0331194	-1.59506	0.0811717	0	0	0	0	0	0	0	0	0
0.34	-7.44735	474.924	-24.3521	0.187102	0	-0.140292	0.0268013	-1.70914	0.08763749999999999	0	0	0	0	0	0	0	0	0
0.35	-5.01156	481.77	-25.033	0.189889	0	-0.139896	0.0187328	-1.80082	0.0935714	0	0	0	0	0	0	0	0	0
0.36	-2.39599	488.814	-25.8709	0.192511	0	-0.139564	0.00916028	-1.86882	0.09890889999999999	0	0	0	0	0	0	0	0	0
0.37	0.413097	495.894	-26.8454	0.194991	0	-0.139294	-0.00159347	-1.91285	0.103553	0	0	0	0	0	0	0	0	0
0.38	3.42292	502.88	-27.9315	0.197353	0	-0.139086	-0.0131604	-1.93346	0.10739	0	0	0	0	0	0	0	0	0
0.39	6.6376	509.676	-29.1014	0.19962	0	-0.13894	-0.0251608	-1.932	0.110313	0	0	0	0	0	0	0	0	0
0.4	10.0607	516.2140000000001	-30.3248	0.201815	0	-0.138855	-0.0372362	-1.9106	0.112237	0	0	0	0	0	0	0	0	0
0.41	13.6966	522.448	-31.5691	0.203952	0	-0.138832	-0.049081	-1.87216	0.113126	0	0	0	0	0	0	0	0	0
0.42	17.5523	528.347	-32.7985	0.206048	0	-0.138872	-0.0604702	-1.82024	0.112996	0	0	0	0	0	0	0	0	0
0.43	21.6373	533.879	-33.9764	0.20811	0	-0.138974	-0.0712798	-1.75876	0.111928	0	0	0	0	0	0	0	0	0
0.44	25.9618	539.004	-35.0682	0.210148	0	-0.139137	-0.08148900000000001	-1.69183	0.110072	0	0	0	0	0	0	0	0	0
0.45	30.5328	543.6660000000001	-36.0434	0.212161	0	-0.139358	-0.0911703	-1.62338	0.107625	0	0	0	0	0	0	0	0	0
0.46	35.3503	547.79	-36.8772	0.21415	0	-0.139631	-0.10047	-1.55688	0.104809	0	0	0	0	0	0	0	0	0
0.47	40.4044	551.277	-37.5518	0.216116	0	-0.139949	-0.109562	-1.49486	0.101827	0	0	0	0	0	0	0	0	0
0.48	45.6736	554.01	-38.0549	0.218055	0	-0.140303	-0.118598	-1.43857	0.098815	0	0	0	0	0	0	0	0	0
0.49	51.1239	555.849	-38.3773	0.219969	0	-0.140682	-0.127661	-1.388	0.09583120000000001	0	0	0	0	0	0	0	0	0
0.5	56.7078	556.639	-38.5103	0.221855	0	-0.141079	-0.136744	-1.34227	0.0928631	0	0	0	0	0	0	0	0	0
0.51	62.3627	556.2089999999999	-38.4426	0.223712	0	-0.141484	-0.145768	-1.3001	0.0898567	0	0	0	0	0	0	0	0	0
0.52	68.0116	554.37	-38.1595	0.225538	0	-0.141893	-0.154612	-1.26026	0.0867488	0	0	0	0	0	0	0	0	0
0.53	73.5643	550.9109999999999	-37.645	0.227335	0	-0.142298	-0.163114	-1.22153	0.08347010000000001	0	0	0	0	0	0	0	0	0
0.54	78.91800000000001	545.607	-36.8851	0.229102	0	-0.142693	-0.171039	-1.1825	0.0799411	0	0	0	0	0	0	0	0	0
0.55	83.9603	538.2140000000001	-35.8684	0.230841	0	-0.143074	-0.178101	-1.14169	0.076086	0	0	0	0	0	0	0	0	0
0.5600000000000001	88.5699	528.487	-34.5886	0.232554	0	-0.143436	-0.184004	-1.09793	0.0718577	0	0	0	0	0	0	0	0	0
